<svg width="32" height="32" viewBox="0 0 32 32" fill="none" xmlns="http://www.w3.org/2000/svg">
<rect width="32" height="32" rx="8.48485" fill="#AB3A6C"/>
<path d="M25.4387 11.1354L24.9381 10.2691C24.5602 9.61327 24.3707 9.28536 24.0485 9.1548C23.7273 9.02323 23.3635 9.12748 22.635 9.33293L21.3989 9.68108C20.9338 9.78836 20.4464 9.72763 20.0229 9.50903L19.6814 9.31268C19.3176 9.07983 19.0379 8.73692 18.883 8.33401L18.5446 7.32397C18.3217 6.656 18.2102 6.32202 17.9457 6.13175C17.6813 5.93945 17.3287 5.93945 16.6255 5.93945H15.4957C14.7925 5.93945 14.4409 5.93945 14.1755 6.13175C13.911 6.32202 13.8006 6.656 13.5777 7.32397L13.2392 8.33401C13.0841 8.73706 12.804 9.07999 12.4398 9.31268L12.0983 9.51004C11.6748 9.72763 11.1864 9.78836 10.7223 9.68209L9.48619 9.33293C8.75767 9.12748 8.39392 9.02424 8.07272 9.1548C7.75051 9.28536 7.56103 9.61327 7.18309 10.2681L6.68357 11.1354C6.32893 11.7508 6.15161 12.0574 6.18607 12.3843C6.22052 12.7122 6.45761 12.9754 6.93181 13.5027L7.97646 14.6696C8.2318 14.9924 8.41317 15.5551 8.41317 16.0612C8.41317 16.5672 8.2318 17.1299 7.97748 17.4528L6.93181 18.6187C6.45761 19.146 6.22052 19.4101 6.18607 19.737C6.15161 20.0639 6.32792 20.3716 6.68255 20.9859L7.18309 21.8533C7.56103 22.5081 7.75051 22.836 8.07272 22.9665C8.39493 23.0971 8.75767 22.9949 9.48619 22.7884L10.7223 22.4403C11.1873 22.3339 11.6749 22.3949 12.0993 22.6123L12.4398 22.8086C12.8046 23.0414 13.0842 23.3855 13.2382 23.7883L13.5766 24.7974C13.7996 25.4653 13.911 25.7993 14.1755 25.9916C14.4409 26.1819 14.7925 26.1819 15.4957 26.1819H16.6255C17.3287 26.1819 17.6813 26.1819 17.9457 25.9906C18.2102 25.7993 18.3217 25.4653 18.5436 24.7974L18.883 23.7883C19.037 23.3845 19.3167 23.0414 19.6814 22.8086L20.0219 22.6123C20.4474 22.3947 20.9338 22.333 21.3999 22.4403L22.636 22.7884C23.3635 22.9949 23.7273 23.0981 24.0485 22.9675C24.3707 22.836 24.5602 22.5081 24.9381 21.8533L25.4377 20.9859C25.7923 20.3716 25.9696 20.0649 25.9352 19.737C25.9007 19.4091 25.6636 19.146 25.1894 18.6187L24.1448 17.4528C23.8894 17.1289 23.7081 16.5672 23.7081 16.0612C23.7081 15.5551 23.8894 14.9924 24.1437 14.6696L25.1894 13.5027C25.6636 12.9764 25.9007 12.7122 25.9352 12.3843C25.9696 12.0564 25.7933 11.7508 25.4387 11.1354Z" stroke="white" stroke-width="1.69697" stroke-linecap="round" stroke-linejoin="round"/>
<path d="M12.3636 16.0571L14.4759 18.3031L19.0303 13.9395" stroke="white" stroke-width="1.69697" stroke-linecap="round" stroke-linejoin="round"/>
</svg>
